<svg xmlns="http://www.w3.org/2000/svg" viewBox="0 0 48 48"><defs><style>.cls-1{fill:#1e0f00;}</style></defs><title>Asset 31</title><g id="Layer_2" data-name="Layer 2"><g id="_1" data-name="1"><path class="cls-1" d="M24,28a4,4,0,1,1,4-4A4,4,0,0,1,24,28Zm0-6a2,2,0,1,0,2,2A2,2,0,0,0,24,22Z"/><path class="cls-1" d="M24,38a14,14,0,0,1-9.24-24.52L16.08,15A12,12,0,1,0,35.61,27.06l1.93.5A14,14,0,0,1,24,38Z"/><polygon class="cls-1" points="25 8.41 21.29 4.71 22.71 3.29 25 5.59 29.29 1.29 30.71 2.71 25 8.41"/><path class="cls-1" d="M29,12H19a1,1,0,0,1-1-1V1a1,1,0,0,1,1-1h7V2H20v8h8V8h2v3A1,1,0,0,1,29,12Z"/><rect class="cls-1" x="33.95" y="18.56" width="2" height="16.65" transform="translate(0.06 53.84) rotate(-75.26)"/><rect class="cls-1" y="23" width="6" height="2"/><rect class="cls-1" x="23" y="42" width="2" height="6"/><rect class="cls-1" x="42" y="23" width="6" height="2"/><rect class="cls-1" x="3.81" y="33.5" width="4" height="2" transform="translate(-16.47 7.53) rotate(-29.99)"/><rect class="cls-1" x="40.19" y="12.5" width="4" height="2" transform="translate(-1.1 22.9) rotate(-29.99)"/><rect class="cls-1" x="33.5" y="40.19" width="2" height="4" transform="translate(-16.47 22.9) rotate(-29.99)"/><rect class="cls-1" x="12.5" y="3.81" width="2" height="4" transform="translate(-1.1 7.53) rotate(-29.99)"/><rect class="cls-1" x="11.5" y="41.19" width="4" height="2" transform="translate(-29.79 32.79) rotate(-60.01)"/><rect class="cls-1" x="32.5" y="4.81" width="4" height="2" transform="translate(12.22 32.79) rotate(-60.01)"/><rect class="cls-1" x="41.19" y="32.5" width="2" height="4" transform="translate(-8.78 53.79) rotate(-60.01)"/><rect class="cls-1" x="4.81" y="11.5" width="2" height="4" transform="translate(-8.78 11.79) rotate(-60.01)"/><path class="cls-1" d="M17,19H15V15H11V13h5a1,1,0,0,1,1,1Z"/></g></g></svg>